Patient4_TMGait_0pt2_03_right_05_GRF.mot
version=1
nRows=65
nColumns=19
inDegrees=no
endheader
time	F1x	F1y	F1z	M1x	M1y	M1z	F2x	F2y	F2z	M2x	M2y	M2z	EC1x	EC1y	EC1z	EC2x	EC2y	EC2z
10.56	-5.3031	800.6981	53.5045	-254.0431	-57.4076	867.7684	-9.4861	-8.8008	0.79078	-1.7582	-0.1612	-9.4128	-0.0592	0.0182	-0.0073	-0.0462	0.0165	0.9585
10.5815	-3.0483	798.9191	52.865	-253.5127	-55.7556	864.274	-6.5893	-5.1566	0.51065	-0.88831	-0.033145	-5.5417	-0.0592	0.0182	-0.0073	-0.0462	0.0165	0.9585
10.603	-0.8962	799.0427	52.2253	-253.5338	-54.0507	862.6085	-4.1194	-2.0232	0.27637	-0.13825	0.069105	-2.2168	-0.0592	0.0182	-0.0073	-0.0462	0.0165	0.9585
10.6245	0.89392	801.6078	51.6542	-254.262	-52.4563	863.4625	-2.2285	0.40545	0.10102	0.44683	0.1413	0.36049	-0.0592	0.0182	-0.0073	-0.0462	0.0165	0.9585
10.646	2.1325	806.604	51.1771	-255.69	-51.0748	866.9153	-0.91831	2.1185	-0.019136	0.86433	0.18949	2.1825	-0.0592	0.0182	-0.0073	-0.0462	0.0165	0.9585
10.6675	2.7632	813.4583	50.7522	-257.6486	-49.9008	872.3849	-0.10954	3.2034	-0.095903	1.1333	0.22604	3.3411	-0.0592	0.0182	-0.0073	-0.0462	0.0165	0.9585
10.689	2.9052	821.0745	50.2877	-259.8168	-48.8229	878.6505	0.31105	3.7827	-0.14236	1.2795	0.26042	3.9593	-0.0592	0.0182	-0.0073	-0.0462	0.0165	0.9585
10.7105	2.8186	827.927	49.68	-261.747	-47.6743	883.9761	0.46126	3.9695	-0.16888	1.3247	0.29379	4.1513	-0.0592	0.0182	-0.0073	-0.0462	0.0165	0.9585
10.732	2.8463	832.2635	48.8381	-262.9232	-46.2748	886.364	0.44494	3.8422	-0.18268	1.28	0.32134	3.9928	-0.0592	0.0182	-0.0073	-0.0462	0.0165	0.9585
10.7535	3.3436	832.4069	47.7149	-262.8448	-44.4844	883.9208	0.34673	3.4443	-0.18703	1.1454	0.33681	3.517	-0.0592	0.0182	-0.0073	-0.0462	0.0165	0.9585
10.775	4.5932	827.1403	46.3295	-261.1363	-42.255	875.2981	0.23106	2.7818	-0.181	0.91017	0.3316	2.7208	-0.0592	0.0182	-0.0073	-0.0462	0.0165	0.9585
10.7965	6.7462	816.0906	44.752	-257.6701	-39.6272	860.1186	0.14566	1.8383	-0.16124	0.55895	0.29522	1.5865	-0.0592	0.0182	-0.0073	-0.0462	0.0165	0.9585
10.818	9.8071	799.9585	43.098	-252.645	-36.7227	839.2156	0.12447	0.59866	-0.12516	0.080813	0.21838	0.10273	-0.0592	0.0182	-0.0073	-0.0462	0.0165	0.9585
10.8395	13.6528	780.5311	41.5312	-246.5936	-33.7394	814.6104	0.18932	-0.9112	-0.071074	-0.51619	0.092309	-1.6941	-0.0592	0.0182	-0.0073	-0.0462	0.0165	0.9585
10.861	18.0636	760.3849	40.2571	-240.2958	-30.936	789.1677	0.34899	-2.5764	0.0006898	-1.1862	-0.086354	-3.6651	-0.0592	0.0182	-0.0073	-0.0462	0.0165	0.9585
10.8825	22.7464	742.31	39.4894	-234.6029	-28.5917	765.9695	0.59505	-4.1382	0.088206	-1.8251	-0.30915	-5.4888	-0.0592	0.0182	-0.0073	-0.0462	0.0165	0.9585
10.904	27.3746	728.6413	39.3994	-230.2317	-26.9513	747.5991	0.89561	-5.1368	0.182	-2.246	-0.54754	-6.596	-0.0592	0.0182	-0.0073	-0.0462	0.0165	0.9585
10.9255	31.6513	720.698	40.0902	-227.5868	-26.1852	735.5425	1.1898	-4.8581	0.26006	-2.1577	-0.74446	-6.11	-0.0592	0.0182	-0.0073	-0.0462	0.0165	0.9585
10.947	35.3383	718.4024	41.5952	-226.6357	-26.3829	729.8046	1.3775	-2.2982	0.28549	-1.1501	-0.80834	-2.8038	-0.0592	0.0182	-0.0073	-0.0462	0.0165	0.9585
10.9685	38.2389	720.2223	43.8597	-226.8902	-27.5441	728.8735	1.309	3.8148	0.2043	1.2981	-0.60293	4.8674	-0.0592	0.0182	-0.0073	-0.0462	0.0165	0.9585
10.99	40.1653	723.4988	46.7162	-227.5099	-29.569	730.0793	0.77404	14.9168	-0.053215	5.7799	0.054344	18.6259	-0.0592	0.0182	-0.0073	-0.0462	0.0165	0.9585
11.0115	40.9301	724.9785	49.8833	-227.47	-32.261	730.1485	-0.49094	32.3754	-0.56601	12.864	1.3794	40.0787	-0.0592	0.0182	-0.0073	-0.0462	0.0165	0.9585
11.033	40.3725	721.4072	52.9666	-225.7515	-35.3127	725.8117	-2.7781	57.0789	-1.4144	22.9286	3.5939	70.2132	-0.0592	0.0182	-0.0073	-0.0462	0.0165	0.9585
11.0545	38.4292	710.0691	55.4975	-221.5158	-38.3111	714.3282	-6.2298	88.9731	-2.6978	35.9671	6.8733	108.8456	-0.0592	0.0182	-0.0073	-0.0462	0.0165	0.9585
11.076	35.2048	689.2493	57.0331	-214.2489	-40.8132	693.9278	-10.6204	126.7238	-4.6077	51.4333	11.3378	154.2185	-0.0592	0.0182	-0.0073	-0.0462	0.0165	0.9585
11.0975	31.0145	658.6217	57.2722	-203.8805	-42.4432	664.1759	-15.3112	167.6894	-7.2906	68.2352	16.8538	202.993	-0.0592	0.0182	-0.0073	-0.0462	0.0165	0.9585
11.119	26.3879	619.4806	56.1235	-190.8535	-42.9578	626.1905	-19.5655	208.92	-10.683	85.1589	22.9918	251.5043	-0.0592	0.0182	-0.0073	-0.0462	0.0165	0.9585
11.1405	21.9649	574.5289	53.7133	-176.0554	-42.2796	582.4584	-22.9045	248.7509	-14.4864	101.5266	29.1759	297.695	-0.0592	0.0182	-0.0073	-0.0462	0.0165	0.9585
11.162	18.2984	527.0377	50.3276	-160.5445	-40.4983	536.0517	-25.1537	287.0796	-18.3036	117.3072	34.8737	341.4386	-0.0592	0.0182	-0.0073	-0.0462	0.0165	0.9585
11.1835	15.7107	479.8425	46.3044	-145.233	-37.8134	489.6694	-26.333	324.4082	-21.8005	132.7159	39.7242	383.3823	-0.0592	0.0182	-0.0073	-0.0462	0.0165	0.9585
11.205	14.2865	434.7835	41.9511	-130.7125	-34.4625	445.0804	-26.5591	360.9932	-24.7863	147.8591	43.5727	423.9263	-0.0592	0.0182	-0.0073	-0.0462	0.0165	0.9585
11.2265	13.9517	392.6015	37.4999	-117.2289	-30.6607	403.0112	-26.0368	396.6494	-27.2102	162.652	46.4503	462.9781	-0.0592	0.0182	-0.0073	-0.0462	0.0165	0.9585
11.248	14.5626	353.1601	33.0919	-104.7538	-26.5657	363.3468	-25.0416	431.0975	-29.123	176.9631	48.5265	500.3226	-0.0592	0.0182	-0.0073	-0.0462	0.0165	0.9585
11.2695	15.9554	315.759	28.7859	-93.0803	-22.2725	325.4257	-23.8602	464.4262	-30.6296	190.8087	50.035	536.1305	-0.0592	0.0182	-0.0073	-0.0462	0.0165	0.9585
11.291	17.935	279.4061	24.5706	-81.9057	-17.8258	288.3051	-22.7329	497.2549	-31.8692	204.4205	51.226	571.1333	-0.0592	0.0182	-0.0073	-0.0462	0.0165	0.9585
11.3125	20.2464	243.1618	20.3898	-70.9343	-13.2508	251.1055	-21.845	530.5188	-32.9973	218.1609	52.3425	606.4085	-0.0592	0.0182	-0.0073	-0.0462	0.0165	0.9585
11.334	22.56	206.5138	16.2127	-59.9904	-8.6274	213.3808	-21.3366	565.0655	-34.1472	232.3601	53.5816	642.9434	-0.0592	0.0182	-0.0073	-0.0462	0.0165	0.9585
11.3555	24.4605	169.6555	12.0977	-49.1012	-4.153	175.3892	-21.2891	601.2531	-35.3884	247.1549	55.0451	681.1933	-0.0592	0.0182	-0.0073	-0.0462	0.0165	0.9585
11.377	25.4593	133.5597	8.2126	-38.5218	-0.15037	138.1641	-21.6979	638.6527	-36.706	262.3627	56.7051	720.7575	-0.0592	0.0182	-0.0073	-0.0462	0.0165	0.9585
11.3985	25.1134	99.75	4.7953	-28.6715	3.0067	103.2869	-22.463	675.9427	-38.0309	277.4285	58.4289	760.257	-0.0592	0.0182	-0.0073	-0.0462	0.0165	0.9585
11.42	23.191	69.8524	2.0866	-20.0026	5.0109	72.4362	-23.4009	711.011	-39.2898	291.4583	60.0404	797.4394	-0.0592	0.0182	-0.0073	-0.0462	0.0165	0.9585
11.4415	19.8117	45.0782	0.23681	-12.8493	5.7536	46.8589	-24.2679	741.3186	-40.4382	303.3709	61.3724	829.5723	-0.0592	0.0182	-0.0073	-0.0462	0.0165	0.9585
11.463	15.491	25.9043	-0.79158	-7.3368	5.4254	27.0449	-24.7879	764.4758	-41.4653	312.1483	62.2932	854.0715	-0.0592	0.0182	-0.0073	-0.0462	0.0165	0.9585
11.4845	10.9539	12.1401	-1.1811	-3.3981	4.4195	12.7978	-24.6805	778.7829	-42.3767	317.0774	62.7027	869.0894	-0.0592	0.0182	-0.0073	-0.0462	0.0165	0.9585
11.506	6.8422	3.1317	-1.1514	-0.83481	3.1418	3.4523	-23.7166	783.5615	-43.1656	317.9037	62.5232	873.8746	-0.0592	0.0182	-0.0073	-0.0462	0.0165	0.9585
11.5275	3.5284	-2.0548	-0.89548	0.62891	1.8911	-1.9465	-21.8169	779.4352	-43.7861	314.9574	61.71	869.0909	-0.0592	0.0182	-0.0073	-0.0462	0.0165	0.9585
11.549	1.11	-4.4472	-0.55411	1.2929	0.83003	-4.4573	-19.1304	768.5831	-44.1564	309.2521	60.285	857.1031	-0.0592	0.0182	-0.0073	-0.0462	0.0165	0.9585
11.5705	-0.48719	-4.9954	-0.21793	1.4325	0.021872	-5.0574	-16.0338	754.4992	-44.1973	302.364	58.3698	841.7198	-0.0592	0.0182	-0.0073	-0.0462	0.0165	0.9585
11.592	-1.4199	-4.4709	0.064131	1.2709	-0.53318	-4.5413	-13.0364	741.1989	-43.8437	296.0794	56.1523	827.3221	-0.0592	0.0182	-0.0073	-0.0462	0.0165	0.9585
11.6135	-1.8664	-3.4375	0.2759	0.96942	-0.87171	-3.4936	-10.6237	732.2943	-43.0497	291.9939	53.8193	817.8432	-0.0592	0.0182	-0.0073	-0.0462	0.0165	0.9585
11.635	-1.9884	-2.269	0.41916	0.63342	-1.0446	-2.3044	-9.1311	730.3272	-41.7908	291.2258	51.4981	816.0314	-0.0592	0.0182	-0.0073	-0.0462	0.0165	0.9585
11.6565	-1.9159	-1.1854	0.50346	0.32462	-1.1025	-1.2047	-8.7082	736.4941	-40.0578	294.2932	49.2319	823.1543	-0.0592	0.0182	-0.0073	-0.0462	0.0165	0.9585
11.678	-1.7457	-0.2934	0.54186	0.072169	-1.0887	-0.30242	-9.3542	750.604	-37.8758	301.0888	47.012	838.9595	-0.0592	0.0182	-0.0073	-0.0462	0.0165	0.9585
11.6995	-1.5456	0.37585	0.55124	-0.11793	-1.0401	0.37576	-10.9451	771.2361	-35.3273	310.9411	44.8173	861.8406	-0.0592	0.0182	-0.0073	-0.0462	0.0165	0.9585
11.721	-1.3587	0.83597	0.54561	-0.25144	-0.98271	0.84456	-13.2426	796.0616	-32.553	322.7455	42.6294	889.1896	-0.0592	0.0182	-0.0073	-0.0462	0.0165	0.9585
11.7425	-1.2068	1.1238	0.53174	-0.33764	-0.92952	1.1341	-15.9319	822.0249	-29.7989	335.0583	40.5168	917.5957	-0.0592	0.0182	-0.0073	-0.0462	0.0165	0.9585
11.764	-1.0972	1.2777	0.51421	-0.3865	-0.88813	1.2855	-18.6847	845.7266	-27.3716	346.2959	38.6342	943.271	-0.0592	0.0182	-0.0073	-0.0462	0.0165	0.9585
11.7855	-1.0299	1.3275	0.49655	-0.40534	-0.86045	1.3337	-21.1955	864.0449	-25.5108	355.0267	37.1116	962.7484	-0.0592	0.0182	-0.0073	-0.0462	0.0165	0.9585
11.807	-0.99924	1.2915	0.48172	-0.39744	-0.8462	1.2973	-23.2077	874.6332	-24.3366	360.1926	36.0007	973.4311	-0.0592	0.0182	-0.0073	-0.0462	0.0165	0.9585
11.8285	-0.99664	1.1696	0.4717	-0.36203	-0.84303	1.1691	-24.521	876.2259	-23.8504	361.2391	35.2705	973.9233	-0.0592	0.0182	-0.0073	-0.0462	0.0165	0.9585
11.85	-1.0115	0.94654	0.46745	-0.29425	-0.84947	0.92354	-25.0059	868.7667	-23.9543	358.1647	34.8232	964.1651	-0.0592	0.0182	-0.0073	-0.0462	0.0165	0.9585
11.8715	-1.0328	0.59638	0.46663	-0.18569	-0.8616	0.52748	-24.5784	853.3983	-24.4795	351.5057	34.5028	945.398	-0.0592	0.0182	-0.0073	-0.0462	0.0165	0.9585
11.893	-1.0513	0.087697	0.46259	-0.025357	-0.86921	-0.055655	-23.1584	832.2793	-25.2259	342.2459	34.1189	919.95	-0.0592	0.0182	-0.0073	-0.0462	0.0165	0.9585
11.9145	-1.0558	-0.6057	0.44711	0.19538	-0.85691	-0.86193	-20.6801	808.1662	-26.0033	331.6239	33.4878	890.7842	-0.0592	0.0182	-0.0073	-0.0462	0.0165	0.9585
11.936	-1.0319	-1.4887	0.41077	0.47759	-0.80418	-1.9017	-17.1376	783.8931	-26.6705	320.9004	32.4833	860.9619	-0.0592	0.0182	-0.0073	-0.0462	0.0165	0.9585
